# xmcd
#
# Track frame offsets:
#	150
#	15750
#	30075
#	49050
#	64500
#	79500
#
# Disc length: 1254 seconds
#
# Revision: 0
# Processed by: cddbd v1.5.2PL0 Copyright (c) Steve Scherf et al.
# Submitted via: audiograbber 1.83.01
#
DISCID=2e04e406
DTITLE=Sharryn Bell - Here We Go
DYEAR=2000
DGENRE=Country
TTITLE0=Mountain Rain
TTITLE1=Once Again
TTITLE2=Butterfly Angel
TTITLE3=Let Me See
TTITLE4=Drowning
TTITLE5=It's All Good
EXTD=
EXTT0=
EXTT1=
EXTT2=
EXTT3=
EXTT4=
EXTT5=
PLAYORDER=
